  0
SECTION
  2
HEADER
  9
$ACADVER
  1
AC1015
  9
$ACADMAINTVER
 70
     6
  9
$DWGCODEPAGE
  3
ANSI_1251
  9
$INSBASE
 10
0.0
 20
0.0
 30
0.0
  9
$EXTMIN
 10
1.000000000000000E+20
 20
1.000000000000000E+20
 30
1.000000000000000E+20
  9
$EXTMAX
 10
-1.000000000000000E+20
 20
-1.000000000000000E+20
 30
-1.000000000000000E+20
  9
$LIMMIN
 10
0.0
 20
0.0
  9
$LIMMAX
 10
420.0
 20
297.0
  9
$ORTHOMODE
 70
     0
  9
$REGENMODE
 70
     1
  9
$FILLMODE
 70
     1
  9
$QTEXTMODE
 70
     0
  9
$MIRRTEXT
 70
     0
  9
$LTSCALE
 40
1.0
  9
$ATTMODE
 70
     1
  9
$TEXTSIZE
 40
350.0
  9
$TRACEWID
 40
1.0
  9
$TEXTSTYLE
  7
Standard
  9
$CLAYER
  8
0
  9
$CELTYPE
  6
ByLayer
  9
$CECOLOR
 62
   256
  9
$CELTSCALE
 40
1.0
  9
$DISPSILH
 70
     0
  9
$DIMSCALE
 40
1.0
  9
$DIMASZ
 40
200.0
  9
$DIMEXO
 40
2.0
  9
$DIMDLI
 40
100.0
  9
$DIMRND
 40
0.0
  9
$DIMDLE
 40
0.0
  9
$DIMEXE
 40
200.0
  9
$DIMTP
 40
0.0
  9
$DIMTM
 40
0.0
  9
$DIMTXT
 40
350.0
  9
$DIMCEN
 40
2.5
  9
$DIMTSZ
 40
0.0
  9
$DIMTOL
 70
     0
  9
$DIMLIM
 70
     0
  9
$DIMTIH
 70
     0
  9
$DIMTOH
 70
     0
  9
$DIMSE1
 70
     0
  9
$DIMSE2
 70
     0
  9
$DIMTAD
 70
     1
  9
$DIMZIN
 70
     8
  9
$DIMBLK
  1

  9
$DIMASO
 70
     1
  9
$DIMSHO
 70
     1
  9
$DIMPOST
  1

  9
$DIMAPOST
  1

  9
$DIMALT
 70
     0
  9
$DIMALTD
 70
     3
  9
$DIMALTF
 40
0.03937007874016
  9
$DIMLFAC
 40
1.0
  9
$DIMTOFL
 70
     1
  9
$DIMTVP
 40
0.0
  9
$DIMTIX
 70
     0
  9
$DIMSOXD
 70
     0
  9
$DIMSAH
 70
     0
  9
$DIMBLK1
  1

  9
$DIMBLK2
  1

  9
$DIMSTYLE
  2
ISO-25
  9
$DIMCLRD
 70
     0
  9
$DIMCLRE
 70
     0
  9
$DIMCLRT
 70
     0
  9
$DIMTFAC
 40
1.0
  9
$DIMGAP
 40
100.0
  9
$DIMJUST
 70
     0
  9
$DIMSD1
 70
     0
  9
$DIMSD2
 70
     0
  9
$DIMTOLJ
 70
     0
  9
$DIMTZIN
 70
     8
  9
$DIMALTZ
 70
     0
  9
$DIMALTTZ
 70
     0
  9
$DIMUPT
 70
     0
  9
$DIMDEC
 70
     0
  9
$DIMTDEC
 70
     2
  9
$DIMALTU
 70
     2
  9
$DIMALTTD
 70
     3
  9
$DIMTXSTY
  7
Standard
  9
$DIMAUNIT
 70
     0
  9
$DIMADEC
 70
     0
  9
$DIMALTRND
 40
0.0
  9
$DIMAZIN
 70
     0
  9
$DIMDSEP
 70
    46
  9
$DIMATFIT
 70
     3
  9
$DIMFRAC
 70
     0
  9
$DIMLDRBLK
  1

  9
$DIMLUNIT
 70
     2
  9
$DIMLWD
 70
    -2
  9
$DIMLWE
 70
    -2
  9
$DIMTMOVE
 70
     0
  9
$LUNITS
 70
     2
  9
$LUPREC
 70
     3
  9
$SKETCHINC
 40
1.0
  9
$FILLETRAD
 40
10.0
  9
$AUNITS
 70
     0
  9
$AUPREC
 70
     0
  9
$MENU
  1
.
  9
$ELEVATION
 40
0.0
  9
$PELEVATION
 40
0.0
  9
$THICKNESS
 40
0.0
  9
$LIMCHECK
 70
     0
  9
$CHAMFERA
 40
10.0
  9
$CHAMFERB
 40
10.0
  9
$CHAMFERC
 40
20.0
  9
$CHAMFERD
 40
0.0
  9
$SKPOLY
 70
     0
  9
$TDCREATE
 40
2455022.887359514
  9
$TDUCREATE
 40
2455022.637359514
  9
$TDUPDATE
 40
2456833.780451389
  9
$TDUUPDATE
 40
2456833.530451389
  9
$TDINDWG
 40
0.0
  9
$TDUSRTIMER
 40
2456833.52087963
  9
$USRTIMER
 70
     1
  9
$ANGBASE
 50
0.0
  9
$ANGDIR
 70
     0
  9
$PDMODE
 70
     0
  9
$PDSIZE
 40
0.0
  9
$PLINEWID
 40
0.0
  9
$SPLFRAME
 70
     0
  9
$SPLINETYPE
 70
     6
  9
$SPLINESEGS
 70
     8
  9
$HANDSEED
  5
1ADB0
  9
$SURFTAB1
 70
     6
  9
$SURFTAB2
 70
     6
  9
$SURFTYPE
 70
     6
  9
$SURFU
 70
     6
  9
$SURFV
 70
     6
  9
$UCSBASE
  2

  9
$UCSNAME
  2

  9
$UCSORG
 10
0.0
 20
0.0
 30
0.0
  9
$UCSXDIR
 10
1.0
 20
0.0
 30
0.0
  9
$UCSYDIR
 10
0.0
 20
1.0
 30
0.0
  9
$UCSORTHOREF
  2

  9
$UCSORTHOVIEW
 70
     0
  9
$UCSORGTOP
 10
0.0
 20
0.0
 30
0.0
  9
$UCSORGBOTTOM
 10
0.0
 20
0.0
 30
0.0
  9
$UCSORGLEFT
 10
0.0
 20
0.0
 30
0.0
  9
$UCSORGRIGHT
 10
0.0
 20
0.0
 30
0.0
  9
$UCSORGFRONT
 10
0.0
 20
0.0
 30
0.0
  9
$UCSORGBACK
 10
0.0
 20
0.0
 30
0.0
  9
$PUCSBASE
  2

  9
$PUCSNAME
  2

  9
$PUCSORG
 10
0.0
 20
0.0
 30
0.0
  9
$PUCSXDIR
 10
1.0
 20
0.0
 30
0.0
  9
$PUCSYDIR
 10
0.0
 20
1.0
 30
0.0
  9
$PUCSORTHOREF
  2

  9
$PUCSORTHOVIEW
 70
     0
  9
$PUCSORGTOP
 10
0.0
 20
0.0
 30
0.0
  9
$PUCSORGBOTTOM
 10
0.0
 20
0.0
 30
0.0
  9
$PUCSORGLEFT
 10
0.0
 20
0.0
 30
0.0
  9
$PUCSORGRIGHT
 10
0.0
 20
0.0
 30
0.0
  9
$PUCSORGFRONT
 10
0.0
 20
0.0
 30
0.0
  9
$PUCSORGBACK
 10
0.0
 20
0.0
 30
0.0
  9
$USERI1
 70
     0
  9
$USERI2
 70
     0
  9
$USERI3
 70
     0
  9
$USERI4
 70
     0
  9
$USERI5
 70
     0
  9
$USERR1
 40
0.0
  9
$USERR2
 40
0.0
  9
$USERR3
 40
0.0
  9
$USERR4
 40
0.0
  9
$USERR5
 40
0.0
  9
$WORLDVIEW
 70
     1
  9
$SHADEDGE
 70
     3
  9
$SHADEDIF
 70
    70
  9
$TILEMODE
 70
     1
  9
$MAXACTVP
 70
    64
  9
$PINSBASE
 10
0.0
 20
0.0
 30
0.0
  9
$PLIMCHECK
 70
     0
  9
$PEXTMIN
 10
1.000000000000000E+20
 20
1.000000000000000E+20
 30
1.000000000000000E+20
  9
$PEXTMAX
 10
-1.000000000000000E+20
 20
-1.000000000000000E+20
 30
-1.000000000000000E+20
  9
$PLIMMIN
 10
0.0
 20
0.0
  9
$PLIMMAX
 10
0.0
 20
0.0
  9
$UNITMODE
 70
     0
  9
$VISRETAIN
 70
     1
  9
$PLINEGEN
 70
     0
  9
$PSLTSCALE
 70
     1
  9
$TREEDEPTH
 70
  3020
  9
$CMLSTYLE
  2
Standard
  9
$CMLJUST
 70
     0
  9
$CMLSCALE
 40
20.0
  9
$PROXYGRAPHICS
 70
     1
  9
$MEASUREMENT
 70
     1
  9
$CELWEIGHT
370
    -1
  9
$ENDCAPS
280
     0
  9
$JOINSTYLE
280
     0
  9
$LWDISPLAY
290
     0
  9
$INSUNITS
 70
     4
  9
$HYPERLINKBASE
  1

  9
$STYLESHEET
  1

  9
$XEDIT
290
     1
  9
$CEPSNTYPE
380
     0
  9
$PSTYLEMODE
290
     1
  9
$FINGERPRINTGUID
  2
{EC6BB858-51AA-46EC-B484-6C9CC7AB3E2E}
  9
$VERSIONGUID
  2
{FAEB1C32-E019-11D5-929B-00C0DF256EC4}
  9
$EXTNAMES
290
     1
  9
$PSVPSCALE
 40
0.0
  9
$OLESTARTUP
290
     0
  0
ENDSEC
0
SECTION
  2
CLASSES
  0
CLASS
  1
ACDBDICTIONARYWDFLT
  2
AcDbDictionaryWithDefault
  3
AutoCAD 2000
 90
        0
280
     0
281
     0
  0
CLASS
  1
ACDBPLACEHOLDER
  2
AcDbPlaceHolder
  3
AutoCAD 2000
 90
        0
280
     0
281
     0
  0
CLASS
  1
LAYOUT
  2
AcDbLayout
  3
AutoCAD 2000
 90
        0
280
     0
281
     0
  0
ENDSEC
0
SECTION
  2
TABLES
  0
TABLE
  2
VPORT
  5
8
330
0
100
AcDbSymbolTable
 70
     3
  0
VPORT
  5
31
330
8
100
AcDbSymbolTableRecord
100
AcDbViewportTableRecord
  2
*Active
 70
     0
 10
0.0
 20
0.0
 11
1.0
 21
1.0
 12
250.5538020086083
 22
148.5
 13
0.0
 23
0.0
 14
10.0
 24
10.0
 15
10.0
 25
10.0
 16
0.0
 26
0.0
 36
1.0
 17
0.0
 27
0.0
 37
0.0
 40
297.0
 41
1.687230989956958
 42
50.0
 43
0.0
 44
0.0
 50
0.0
 51
0.0
 71
     0
 72
   100
 73
     1
 74
     3
 75
     0
 76
     0
 77
     0
 78
     0
281
     0
 65
     1
110
0.0
120
0.0
130
0.0
111
1.0
121
0.0
131
0.0
112
0.0
122
1.0
132
0.0
 79
     0
146
0.0
  0
ENDTAB
  0
TABLE
  2
LTYPE
  5
5
330
0
100
AcDbSymbolTable
 70
     4
  0
LTYPE
  5
14
330
5
100
AcDbSymbolTableRecord
100
AcDbLinetypeTableRecord
  2
ByBlock
 70
     0
  3

 72
    65
 73
     0
 40
0.0
  0
LTYPE
  5
15
330
5
100
AcDbSymbolTableRecord
100
AcDbLinetypeTableRecord
  2
ByLayer
 70
     0
  3

 72
    65
 73
     0
 40
0.0
  0
LTYPE
  5
16
330
5
100
AcDbSymbolTableRecord
100
AcDbLinetypeTableRecord
  2
Continuous
 70
     0
  3
Solid line
 72
    65
 73
     0
 40
0.0
  0
LTYPE
  5
2D
330
5
100
AcDbSymbolTableRecord
100
AcDbLinetypeTableRecord
  2
CENTER
 70
     0
  3
Center ____ _ ____ _ ____ _ ____ _ ____ _ ____
 72
    65
 73
     4
 40
50.8
 49
31.75
 74
     0
 49
-6.349999999999999
 74
     0
 49
6.349999999999999
 74
     0
 49
-6.349999999999999
 74
     0
  0
LTYPE
  5
2E
330
5
100
AcDbSymbolTableRecord
100
AcDbLinetypeTableRecord
  2
DASHED
 70
     0
  3
Dashed __ __ __ __ __ __ __ __ __ __ __ __ __ _
 72
    65
 73
     2
 40
19.04999999999999
 49
12.7
 74
     0
 49
-6.349999999999999
 74
     0
  0
LTYPE
  5
2F
330
5
100
AcDbSymbolTableRecord
100
AcDbLinetypeTableRecord
  2
PHANTOM
 70
     0
  3
Phantom ______  __  __  ______  __  __  ______
 72
    65
 73
     6
 40
63.5
 49
31.75
 74
     0
 49
-6.349999999999999
 74
     0
 49
6.349999999999999
 74
     0
 49
-6.349999999999999
 74
     0
 49
6.349999999999999
 74
     0
 49
-6.349999999999999
 74
     0
  0
ENDTAB
  0
TABLE
  2
LAYER
  5
2
330
0
100
AcDbSymbolTable
 70
     1
  0
LAYER
  5
10
330
2
100
AcDbSymbolTableRecord
100
AcDbLayerTableRecord
  2
0
 70
     0
 62
     7
  6
Continuous
370
    -3
390
F
  0
ENDTAB
  0
TABLE
  2
STYLE
  5
3
330
0
100
AcDbSymbolTable
 70
     2
  0
STYLE
  5
11
330
3
100
AcDbSymbolTableRecord
100
AcDbTextStyleTableRecord
  2
Standard
 70
     0
 40
0.0
 41
0.65
 50
0.0
 71
     0
 42
2.5
  3
txt
  4

  0
STYLE
  5
2C
330
3
100
AcDbSymbolTableRecord
100
AcDbTextStyleTableRecord
  2

 70
     1
 40
0.0
 41
1.0
 50
0.0
 71
     0
 42
2.5
  3
ltypeshp.shx
  4

  0
ENDTAB
  0
TABLE
  2
VIEW
  5
6
330
0
100
AcDbSymbolTable
 70
     0
  0
ENDTAB
  0
TABLE
  2
UCS
  5
7
330
0
100
AcDbSymbolTable
 70
     0
  0
ENDTAB
  0
TABLE
  2
APPID
  5
9
330
0
100
AcDbSymbolTable
 70
     1
  0
APPID
  5
12
330
9
100
AcDbSymbolTableRecord
100
AcDbRegAppTableRecord
  2
ACAD
 70
     0
  0
ENDTAB
  0
TABLE
  2
DIMSTYLE
  5
A
330
0
100
AcDbSymbolTable
 70
     1
100
AcDbDimStyleTable
 71
     0
  0
DIMSTYLE
105
27
330
A
100
AcDbSymbolTableRecord
100
AcDbDimStyleTableRecord
  2
ISO-25
 70
     0
 41
2.5
 42
0.625
 43
3.75
 44
1.25
 73
     0
 74
     0
 77
     1
 78
     8
140
2.5
141
2.5
143
0.03937007874016
147
0.625
171
     3
172
     1
271
     2
272
     2
274
     3
278
    44
283
     0
284
     8
340
11
  0
ENDTAB
  0
TABLE
  2
BLOCK_RECORD
  5
1
330
0
100
AcDbSymbolTable
 70
     1
  0
BLOCK_RECORD
  5
1F
330
1
100
AcDbSymbolTableRecord
100
AcDbBlockTableRecord
  2
*Model_Space
340
22
  0
BLOCK_RECORD
  5
1B
330
1
100
AcDbSymbolTableRecord
100
AcDbBlockTableRecord
  2
*Paper_Space
340
1E
  0
BLOCK_RECORD
  5
23
330
1
100
AcDbSymbolTableRecord
100
AcDbBlockTableRecord
  2
*Paper_Space0
340
26
  0
BLOCK_RECORD
  5
C1
330
1
100
AcDbSymbolTableRecord
100
AcDbBlockTableRecord
  2
*D1
340
0
  0
BLOCK_RECORD
  5
CD
330
1
100
AcDbSymbolTableRecord
100
AcDbBlockTableRecord
  2
_OBLIQUE
340
0
102
{BLKREFS
331
C7
331
C8
331
D8
331
D9
331
FB
331
FC
331
109
331
10A
331
117
331
118
331
124
331
125
331
131
331
132
331
13E
331
13F
331
14B
331
14C
102
}
  0
BLOCK_RECORD
  5
D2
330
1
100
AcDbSymbolTableRecord
100
AcDbBlockTableRecord
  2
*D2
340
0
  0
BLOCK_RECORD
  5
F5
330
1
100
AcDbSymbolTableRecord
100
AcDbBlockTableRecord
  2
*D3
340
0
  0
BLOCK_RECORD
  5
102
330
1
100
AcDbSymbolTableRecord
100
AcDbBlockTableRecord
  2
*D4
340
0
  0
BLOCK_RECORD
  5
111
330
1
100
AcDbSymbolTableRecord
100
AcDbBlockTableRecord
  2
*D5
340
0
  0
BLOCK_RECORD
  5
11E
330
1
100
AcDbSymbolTableRecord
100
AcDbBlockTableRecord
  2
*D6
340
0
  0
BLOCK_RECORD
  5
12B
330
1
100
AcDbSymbolTableRecord
100
AcDbBlockTableRecord
  2
*D7
340
0
  0
BLOCK_RECORD
  5
138
330
1
100
AcDbSymbolTableRecord
100
AcDbBlockTableRecord
  2
*D8
340
0
  0
BLOCK_RECORD
  5
145
330
1
100
AcDbSymbolTableRecord
100
AcDbBlockTableRecord
  2
*D9
340
0
  0
ENDTAB
  0
ENDSEC
  0
SECTION
  2
BLOCKS
  0
BLOCK
  5
20
330
1F
100
AcDbEntity
  8
0
100
AcDbBlockBegin
  2
*Model_Space
 70
     0
 10
0.0
 20
0.0
 30
0.0
  3
*Model_Space
  1

  0
ENDBLK
  5
21
330
1F
100
AcDbEntity
  8
0
100
AcDbBlockEnd
  0
BLOCK
  5
1C
330
1B
100
AcDbEntity
 67
     1
  8
0
100
AcDbBlockBegin
  2
*Paper_Space
 70
     0
 10
0.0
 20
0.0
 30
0.0
  3
*Paper_Space
  1

  0
ENDBLK
  5
1D
330
1B
100
AcDbEntity
 67
     1
  8
0
100
AcDbBlockEnd
  0
BLOCK
  5
24
330
23
100
AcDbEntity
  8
0
100
AcDbBlockBegin
  2
*Paper_Space0
 70
     0
 10
0.0
 20
0.0
 30
0.0
  3
*Paper_Space0
  1

  0
ENDBLK
  5
25
330
23
100
AcDbEntity
  8
0
100
AcDbBlockEnd
  0
BLOCK
  5
C2
330
C1
100
AcDbEntity
  8
0
100
AcDbBlockBegin
  2
*D1
 70
     1
 10
0.0
 20
0.0
 30
0.0
  3
*D1
  1
*D1
  0
LINE
  5
C4
330
C1
100
AcDbEntity
  8
0
 62
     0
370
    -2
100
AcDbLine
 10
7809.55787
 20
5312.88703
 30
0.0
 11
9669.40869874
 21
5312.88703
 31
0.0
  0
LINE
  5
C5
330
C1
100
AcDbEntity
  8
0
 62
     0
370
    -2
100
AcDbLine
 10
7741.21414
 20
6423.47241
 30
0.0
 11
9669.40869874
 21
6423.47241
 31
0.0
  0
LINE
  5
C6
330
C1
100
AcDbEntity
  8
0
 62
     0
370
    -2
100
AcDbLine
 10
9569.40869874
 20
5112.88703
 30
0.0
 11
9569.40869874
 21
6623.47241
 31
0.0
  0
INSERT
  5
C7
330
C1
100
AcDbEntity
  8
0
 62
     0
370
    -2
100
AcDbBlockReference
  2
_OBLIQUE
 10
9569.40869874
 20
6423.47241
 30
0.0
 41
200.0
 42
200.0
 43
200.0
 50
90.0
  0
INSERT
  5
C8
330
C1
100
AcDbEntity
  8
0
 62
     0
370
    -2
100
AcDbBlockReference
  2
_OBLIQUE
 10
9569.40869874
 20
5312.88703
 30
0.0
 41
200.0
 42
200.0
 43
200.0
 50
270.0
  0
MTEXT
  5
C9
330
C1
100
AcDbEntity
  8
0
 62
     0
100
AcDbMText
 10
9344.40869874
 20
5868.17972
 30
0.0
 40
350.0
 41
0.0
 71
     5
 72
     1
  1
1111
 11
0.0
 21
1.0
 31
0.0
 73
     1
 44
1.0
  0
POINT
  5
CA
330
C1
100
AcDbEntity
  8
Defpoints
 62
     0
100
AcDbPoint
 10
7809.55787
 20
5312.88703
 30
0.0
  0
POINT
  5
CB
330
C1
100
AcDbEntity
  8
Defpoints
 62
     0
100
AcDbPoint
 10
7741.21414
 20
6423.47241
 30
0.0
  0
POINT
  5
CC
330
C1
100
AcDbEntity
  8
Defpoints
 62
     0
100
AcDbPoint
 10
9569.40869874
 20
5312.88703
 30
0.0
  0
ENDBLK
  5
C3
330
C1
100
AcDbEntity
  8
0
100
AcDbBlockEnd
  0
BLOCK
  5
CE
330
CD
100
AcDbEntity
  8
0
100
AcDbBlockBegin
  2
_OBLIQUE
 70
     0
 10
0.0
 20
0.0
 30
0.0
  3
_OBLIQUE
  1
_OBLIQUE
  0
LINE
  5
D0
330
CD
100
AcDbEntity
  8
0
  6
ByBlock
 62
     0
370
    -2
100
AcDbLine
 10
-0.5
 20
-0.5
 30
0.0
 11
0.5
 21
0.5
 31
0.0
  0
ENDBLK
  5
CF
330
CD
100
AcDbEntity
  8
0
100
AcDbBlockEnd
0
BLOCK
  5
D3
330
D2
100
AcDbEntity
  8
0
100
AcDbBlockBegin
  2
*D2
 70
     1
 10
0.0
 20
0.0
 30
0.0
  3
*D2
  1
*D2
  0
LINE
  5
D5
330
D2
100
AcDbEntity
  8
0
 62
     0
370
    -2
100
AcDbLine
 10
3025.49715
 20
4877.19594
 30
0.0
 11
3025.49715
 21
6079.2383598
 31
0.0
  0
LINE
  5
D6
330
D2
100
AcDbEntity
  8
0
 62
     0
370
    -2
100
AcDbLine
 10
4922.03543
 20
4749.05147
 30
0.0
 11
4922.03543
 21
6079.2383598
 31
0.0
  0
LINE
  5
D7
330
D2
100
AcDbEntity
  8
0
 62
     0
370
    -2
100
AcDbLine
 10
2825.49715
 20
5979.2383598
 30
0.0
 11
5122.03543
 21
5979.2383598
 31
0.0
  0
INSERT
  5
D8
330
D2
100
AcDbEntity
  8
0
 62
     0
370
    -2
100
AcDbBlockReference
  2
_OBLIQUE
 10
3025.49715
 20
5979.2383598
 30
0.0
 41
200.0
 42
200.0
 43
200.0
 50
180.0
  0
INSERT
  5
D9
330
D2
100
AcDbEntity
  8
0
 62
     0
370
    -2
100
AcDbBlockReference
  2
_OBLIQUE
 10
4922.03543
 20
5979.2383598
 30
0.0
 41
200.0
 42
200.0
 43
200.0
 50
0.0
  0
MTEXT
  5
DA
330
D2
100
AcDbEntity
  8
0
 62
     0
100
AcDbMText
 10
3973.76629
 20
6204.2383598
 30
0.0
 40
350.0
 41
0.0
 71
     5
 72
     1
  1
1897
 73
     1
 44
1.0
  0
POINT
  5
DB
330
D2
100
AcDbEntity
  8
Defpoints
 62
     0
100
AcDbPoint
 10
3025.49715
 20
4877.19594
 30
0.0
  0
POINT
  5
DC
330
D2
100
AcDbEntity
  8
Defpoints
 62
     0
100
AcDbPoint
 10
4922.03543
 20
4749.05147
 30
0.0
  0
POINT
  5
DD
330
D2
100
AcDbEntity
  8
Defpoints
 62
     0
100
AcDbPoint
 10
4922.03543
 20
5979.2383598
 30
0.0
  0
ENDBLK
  5
D4
330
D2
100
AcDbEntity
  8
0
100
AcDbBlockEnd
  0
BLOCK
  5
F6
330
F5
100
AcDbEntity
  8
0
100
AcDbBlockBegin
  2
*D3
 70
     1
 10
0.0
 20
0.0
 30
0.0
  3
*D3
  1
*D3
  0
LINE
  5
F8
330
F5
100
AcDbEntity
  8
0
 62
     0
370
    -2
100
AcDbLine
 10
2926.7773
 20
2955.02882
 30
0.0
 11
2926.7773
 21
1812.78714674
 31
0.0
  0
LINE
  5
F9
330
F5
100
AcDbEntity
  8
0
 62
     0
370
    -2
100
AcDbLine
 10
4772.05779
 20
2920.85696
 30
0.0
 11
4772.05779
 21
1812.78714674
 31
0.0
  0
LINE
  5
FA
330
F5
100
AcDbEntity
  8
0
 62
     0
370
    -2
100
AcDbLine
 10
2726.7773
 20
1912.78714674
 30
0.0
 11
4972.05779
 21
1912.78714674
 31
0.0
  0
INSERT
  5
FB
330
F5
100
AcDbEntity
  8
0
 62
     0
370
    -2
100
AcDbBlockReference
  2
_OBLIQUE
 10
2926.7773
 20
1912.78714674
 30
0.0
 41
200.0
 42
200.0
 43
200.0
 50
180.0
  0
INSERT
  5
FC
330
F5
100
AcDbEntity
  8
0
 62
     0
370
    -2
100
AcDbBlockReference
  2
_OBLIQUE
 10
4772.05779
 20
1912.78714674
 30
0.0
 41
200.0
 42
200.0
 43
200.0
 50
0.0
  0
MTEXT
  5
FD
330
F5
100
AcDbEntity
  8
0
 62
     0
100
AcDbMText
 10
3849.417545
 20
2137.78714674
 30
0.0
 40
350.0
 41
0.0
 71
     5
 72
     1
  1
1845
 73
     1
 44
1.0
  0
POINT
  5
FE
330
F5
100
AcDbEntity
  8
Defpoints
 62
     0
100
AcDbPoint
 10
2926.7773
 20
2955.02882
 30
0.0
  0
POINT
  5
FF
330
F5
100
AcDbEntity
  8
Defpoints
 62
     0
100
AcDbPoint
 10
4772.05779
 20
2920.85696
 30
0.0
  0
POINT
  5
100
330
F5
100
AcDbEntity
  8
Defpoints
 62
     0
100
AcDbPoint
 10
4772.05779
 20
1912.78714674
 30
0.0
  0
ENDBLK
  5
F7
330
F5
100
AcDbEntity
  8
0
100
AcDbBlockEnd
  0
BLOCK
  5
103
330
102
100
AcDbEntity
  8
0
100
AcDbBlockBegin
  2
*D4
 70
     1
 10
0.0
 20
0.0
 30
0.0
  3
*D4
  1
*D4
  0
LINE
  5
106
330
102
100
AcDbEntity
  8
0
 62
     0
370
    -2
100
AcDbLine
 10
9702.30061
 20
1912.78715
 30
0.0
 11
7466.55929858
 21
1912.78715
 31
0.0
  0
LINE
  5
107
330
102
100
AcDbEntity
  8
0
 62
     0
370
    -2
100
AcDbLine
 10
9531.4413
 20
3006.28661
 30
0.0
 11
7466.55929858
 21
3006.28661
 31
0.0
  0
LINE
  5
108
330
102
100
AcDbEntity
  8
0
 62
     0
370
    -2
100
AcDbLine
 10
7566.55929858
 20
1712.78715
 30
0.0
 11
7566.55929858
 21
3206.28661
 31
0.0
  0
INSERT
  5
109
330
102
100
AcDbEntity
  8
0
 62
     0
370
    -2
100
AcDbBlockReference
  2
_OBLIQUE
 10
7566.55929858
 20
3006.28661
 30
0.0
 41
200.0
 42
200.0
 43
200.0
 50
90.0
  0
INSERT
  5
10A
330
102
100
AcDbEntity
  8
0
 62
     0
370
    -2
100
AcDbBlockReference
  2
_OBLIQUE
 10
7566.55929858
 20
1912.78715
 30
0.0
 41
200.0
 42
200.0
 43
200.0
 50
270.0
  0
MTEXT
  5
10B
330
102
100
AcDbEntity
  8
0
 62
     0
100
AcDbMText
 10
7341.55929858
 20
2459.53688
 30
0.0
 40
350.0
 41
0.0
 71
     5
 72
     1
  1
1093
 11
0.0
 21
1.0
 31
0.0
 73
     1
 44
1.0
  0
POINT
  5
10C
330
102
100
AcDbEntity
  8
Defpoints
 62
     0
100
AcDbPoint
 10
9702.30061
 20
1912.78715
 30
0.0
  0
POINT
  5
10D
330
102
100
AcDbEntity
  8
Defpoints
 62
     0
100
AcDbPoint
 10
9531.4413
 20
3006.28661
 30
0.0
  0
POINT
  5
10E
330
102
100
AcDbEntity
  8
Defpoints
 62
     0
100
AcDbPoint
 10
7566.55929858
 20
1912.78715
 30
0.0
  0
ENDBLK
  5
104
330
102
100
AcDbEntity
  8
0
100
AcDbBlockEnd
  0
BLOCK
  5
112
330
111
100
AcDbEntity
  8
0
100
AcDbBlockBegin
  2
*D5
 70
     1
 10
0.0
 20
0.0
 30
0.0
  3
*D5
  1
*D5
  0
LINE
  5
114
330
111
100
AcDbEntity
  8
0
 62
     0
370
    -2
100
AcDbLine
 10
12135.14663
 20
12336.0911158
 30
0.0
 11
12135.14663
 21
13529.4109633
 31
0.0
  0
LINE
  5
115
330
111
100
AcDbEntity
  8
0
 62
     0
370
    -2
100
AcDbLine
 10
16043.55261
 20
12019.8211901
 30
0.0
 11
16043.55261
 21
13529.4109633
 31
0.0
  0
LINE
  5
116
330
111
100
AcDbEntity
  8
0
 62
     0
370
    -2
100
AcDbLine
 10
11935.14663
 20
13429.4109633
 30
0.0
 11
16243.55261
 21
13429.4109633
 31
0.0
  0
INSERT
  5
117
330
111
100
AcDbEntity
  8
0
 62
     0
370
    -2
100
AcDbBlockReference
  2
_OBLIQUE
 10
12135.14663
 20
13429.4109633
 30
0.0
 41
200.0
 42
200.0
 43
200.0
 50
180.0
  0
INSERT
  5
118
330
111
100
AcDbEntity
  8
0
 62
     0
370
    -2
100
AcDbBlockReference
  2
_OBLIQUE
 10
16043.55261
 20
13429.4109633
 30
0.0
 41
200.0
 42
200.0
 43
200.0
 50
0.0
  0
MTEXT
  5
119
330
111
100
AcDbEntity
  8
0
 62
     0
100
AcDbMText
 10
12863.0879912
 20
13654.4109633
 30
0.0
 40
350.0
 41
0.0
 71
     5
 72
     1
  1
3908
 73
     1
 44
1.0
  0
POINT
  5
11A
330
111
100
AcDbEntity
  8
Defpoints
 62
     0
100
AcDbPoint
 10
12135.14663
 20
12336.0911158
 30
0.0
  0
POINT
  5
11B
330
111
100
AcDbEntity
  8
Defpoints
 62
     0
100
AcDbPoint
 10
16043.55261
 20
12019.8211901
 30
0.0
  0
POINT
  5
11C
330
111
100
AcDbEntity
  8
Defpoints
 62
     0
100
AcDbPoint
 10
16043.55261
 20
13429.4109633
 30
0.0
  0
ENDBLK
  5
113
330
111
100
AcDbEntity
  8
0
100
AcDbBlockEnd
  0
BLOCK
  5
11F
330
11E
100
AcDbEntity
  8
0
100
AcDbBlockBegin
  2
*D6
 70
     1
 10
0.0
 20
0.0
 30
0.0
  3
*D6
  1
*D6
  0
LINE
  5
121
330
11E
100
AcDbEntity
  8
0
 62
     0
370
    -2
100
AcDbLine
 10
19772.5568
 20
12686.17312
 30
0.0
 11
19772.5568
 21
15656.6089264
 31
0.0
  0
LINE
  5
122
330
11E
100
AcDbEntity
  8
0
 62
     0
370
    -2
100
AcDbLine
 10
23680.96278
 20
12737.42938
 30
0.0
 11
23680.96278
 21
15656.6089264
 31
0.0
  0
LINE
  5
123
330
11E
100
AcDbEntity
  8
0
 62
     0
370
    -2
100
AcDbLine
 10
19572.5568
 20
15556.6089264
 30
0.0
 11
23880.96278
 21
15556.6089264
 31
0.0
  0
INSERT
  5
124
330
11E
100
AcDbEntity
  8
0
 62
     0
370
    -2
100
AcDbBlockReference
  2
_OBLIQUE
 10
19772.5568
 20
15556.6089264
 30
0.0
 41
200.0
 42
200.0
 43
200.0
 50
180.0
  0
INSERT
  5
125
330
11E
100
AcDbEntity
  8
0
 62
     0
370
    -2
100
AcDbBlockReference
  2
_OBLIQUE
 10
23680.96278
 20
15556.6089264
 30
0.0
 41
200.0
 42
200.0
 43
200.0
 50
0.0
  0
MTEXT
  5
126
330
11E
100
AcDbEntity
  8
0
 62
     0
100
AcDbMText
 10
24673.735481
 20
16086.3209948
 30
0.0
 40
350.0
 41
0.0
 71
     5
 72
     1
  1
3908
 73
     1
 44
1.0
  0
POINT
  5
127
330
11E
100
AcDbEntity
  8
Defpoints
 62
     0
100
AcDbPoint
 10
19772.5568
 20
12686.17312
 30
0.0
  0
POINT
  5
128
330
11E
100
AcDbEntity
  8
Defpoints
 62
     0
100
AcDbPoint
 10
23680.96278
 20
12737.42938
 30
0.0
  0
POINT
  5
129
330
11E
100
AcDbEntity
  8
Defpoints
 62
     0
100
AcDbPoint
 10
23680.96278
 20
15556.6089264
 30
0.0
  0
ENDBLK
  5
120
330
11E
100
AcDbEntity
  8
0
100
AcDbBlockEnd
  0
BLOCK
  5
12C
330
12B
100
AcDbEntity
  8
0
100
AcDbBlockBegin
  2
*D7
 70
     1
 10
0.0
 20
0.0
 30
0.0
  3
*D7
  1
*D7
  0
LINE
  5
12E
330
12B
100
AcDbEntity
  8
0
 62
     0
370
    -2
100
AcDbLine
 10
12135.14663
 20
14463.289079
 30
0.0
 11
12135.14663
 21
15656.6089264
 31
0.0
  0
LINE
  5
12F
330
12B
100
AcDbEntity
  8
0
 62
     0
370
    -2
100
AcDbLine
 10
16043.55261
 20
14147.0191532
 30
0.0
 11
16043.55261
 21
15656.6089264
 31
0.0
  0
LINE
  5
130
330
12B
100
AcDbEntity
  8
0
 62
     0
370
    -2
100
AcDbLine
 10
10699.0201548
 20
15556.6089264
 30
0.0
 11
16243.55261
 21
15556.6089264
 31
0.0
  0
INSERT
  5
131
330
12B
100
AcDbEntity
  8
0
 62
     0
370
    -2
100
AcDbBlockReference
  2
_OBLIQUE
 10
12135.14663
 20
15556.6089264
 30
0.0
 41
200.0
 42
200.0
 43
200.0
 50
180.0
  0
INSERT
  5
132
330
12B
100
AcDbEntity
  8
0
 62
     0
370
    -2
100
AcDbBlockReference
  2
_OBLIQUE
 10
16043.55261
 20
15556.6089264
 30
0.0
 41
200.0
 42
200.0
 43
200.0
 50
0.0
  0
MTEXT
  5
133
330
12B
100
AcDbEntity
  8
0
 62
     0
100
AcDbMText
 10
11098.1429618
 20
15781.6089264
 30
0.0
 40
350.0
 41
0.0
 71
     5
 72
     1
  1
3908
 73
     1
 44
1.0
  0
POINT
  5
134
330
12B
100
AcDbEntity
  8
Defpoints
 62
     0
100
AcDbPoint
 10
12135.14663
 20
14463.289079
 30
0.0
  0
POINT
  5
135
330
12B
100
AcDbEntity
  8
Defpoints
 62
     0
100
AcDbPoint
 10
16043.55261
 20
14147.0191532
 30
0.0
  0
POINT
  5
136
330
12B
100
AcDbEntity
  8
Defpoints
 62
     0
100
AcDbPoint
 10
16043.55261
 20
15556.6089264
 30
0.0
  0
ENDBLK
  5
12D
330
12B
100
AcDbEntity
  8
0
100
AcDbBlockEnd
  0
BLOCK
  5
139
330
138
100
AcDbEntity
  8
0
100
AcDbBlockBegin
  2
*D8
 70
     1
 10
0.0
 20
0.0
 30
0.0
  3
*D8
  1
*D8
  0
LINE
  5
13B
330
138
100
AcDbEntity
  8
0
 62
     0
370
    -2
100
AcDbLine
 10
4497.73646
 20
14121.3910232
 30
0.0
 11
4497.73646
 21
15656.6089264
 31
0.0
  0
LINE
  5
13C
330
138
100
AcDbEntity
  8
0
 62
     0
370
    -2
100
AcDbLine
 10
8406.14244
 20
14147.0191532
 30
0.0
 11
8406.14244
 21
15656.6089264
 31
0.0
  0
LINE
  5
13D
330
138
100
AcDbEntity
  8
0
 62
     0
370
    -2
100
AcDbLine
 10
4297.73646
 20
15556.6089264
 30
0.0
 11
8606.14244
 21
15556.6089264
 31
0.0
  0
INSERT
  5
13E
330
138
100
AcDbEntity
  8
0
 62
     0
370
    -2
100
AcDbBlockReference
  2
_OBLIQUE
 10
4497.73646
 20
15556.6089264
 30
0.0
 41
200.0
 42
200.0
 43
200.0
 50
180.0
  0
INSERT
  5
13F
330
138
100
AcDbEntity
  8
0
 62
     0
370
    -2
100
AcDbBlockReference
  2
_OBLIQUE
 10
8406.14244
 20
15556.6089264
 30
0.0
 41
200.0
 42
200.0
 43
200.0
 50
0.0
  0
MTEXT
  5
140
330
138
100
AcDbEntity
  8
0
 62
     0
100
AcDbMText
 10
6451.93945
 20
15781.6089264
 30
0.0
 40
350.0
 41
0.0
 71
     5
 72
     1
  1
3908
 73
     1
 44
1.0
  0
POINT
  5
141
330
138
100
AcDbEntity
  8
Defpoints
 62
     0
100
AcDbPoint
 10
4497.73646
 20
14121.3910232
 30
0.0
  0
POINT
  5
142
330
138
100
AcDbEntity
  8
Defpoints
 62
     0
100
AcDbPoint
 10
8406.14244
 20
14147.0191532
 30
0.0
  0
POINT
  5
143
330
138
100
AcDbEntity
  8
Defpoints
 62
     0
100
AcDbPoint
 10
8406.14244
 20
15556.6089264
 30
0.0
  0
ENDBLK
  5
13A
330
138
100
AcDbEntity
  8
0
100
AcDbBlockEnd
  0
BLOCK
  5
146
330
145
100
AcDbEntity
  8
0
100
AcDbBlockBegin
  2
*D9
 70
     1
 10
0.0
 20
0.0
 30
0.0
  3
*D9
  1
*D9
  0
LINE
  5
148
330
145
100
AcDbEntity
  8
0
 62
     0
370
    -2
100
AcDbLine
 10
4497.73646
 20
11964.1167947
 30
0.0
 11
4497.73646
 21
13499.3346979
 31
0.0
  0
LINE
  5
149
330
145
100
AcDbEntity
  8
0
 62
     0
370
    -2
100
AcDbLine
 10
5114.74824865
 20
12066.6323298
 30
0.0
 11
5114.74824865
 21
13499.3346979
 31
0.0
  0
LINE
  5
14A
330
145
100
AcDbEntity
  8
0
 62
     0
370
    -2
100
AcDbLine
 10
4297.73646
 20
13399.3346979
 30
0.0
 11
6013.43245918
 21
13399.3346979
 31
0.0
  0
INSERT
  5
14B
330
145
100
AcDbEntity
  8
0
 62
     0
370
    -2
100
AcDbBlockReference
  2
_OBLIQUE
 10
4497.73646
 20
13399.3346979
 30
0.0
 41
200.0
 42
200.0
 43
200.0
 50
180.0
  0
INSERT
  5
14C
330
145
100
AcDbEntity
  8
0
 62
     0
370
    -2
100
AcDbBlockReference
  2
_OBLIQUE
 10
5114.74824865
 20
13399.3346979
 30
0.0
 41
200.0
 42
200.0
 43
200.0
 50
0.0
  0
MTEXT
  5
14D
330
145
100
AcDbEntity
  8
0
 62
     0
100
AcDbMText
 10
5714.09035392
 20
13624.3346979
 30
0.0
 40
350.0
 41
0.0
 71
     5
 72
     1
  1
617
 73
     1
 44
1.0
  0
POINT
  5
14E
330
145
100
AcDbEntity
  8
Defpoints
 62
     0
100
AcDbPoint
 10
4497.73646
 20
11964.1167947
 30
0.0
  0
POINT
  5
14F
330
145
100
AcDbEntity
  8
Defpoints
 62
     0
100
AcDbPoint
 10
5114.74824865
 20
12066.6323298
 30
0.0
  0
POINT
  5
150
330
145
100
AcDbEntity
  8
Defpoints
 62
     0
100
AcDbPoint
 10
5114.74824865
 20
13399.3346979
 30
0.0
  0
ENDBLK
  5
147
330
145
100
AcDbEntity
  8
0
100
AcDbBlockEnd
  0
ENDSEC
0
SECTION
  2
ENTITIES
  0
LINE
  5
BB
330
1F
100
AcDbEntity
  8
0
  6
Continuous
 62
  7
 48
100.0
370
   30
100
AcDbLine
 10
1520.56232
 20
7314.68602
 30
0.0
 11
1520.56232
 21
713.18740
 31
0.0
 0
LINE
  5
BC
330
1F
100
AcDbEntity
  8
0
  6
Continuous
 62
  7
 48
100.0
370
   30
100
AcDbLine
 10
1520.56232
 20
713.18740
 30
0.0
 11
10876.06111
 21
713.18740
 31
0.0
 0
LINE
  5
BE
330
1F
100
AcDbEntity
  8
0
  6
Continuous
 62
  7
 48
100.0
370
   30
100
AcDbLine
 10
1520.56232
 20
7314.68602
 30
0.0
 11
10876.06111
 21
7314.68602
 31
0.0
 0
LINE
  5
BF
330
1F
100
AcDbEntity
  8
0
  6
Continuous
 62
  7
 48
100.0
370
   30
100
AcDbLine
 10
10876.06111
 20
713.18740
 30
0.0
 11
10876.06111
 21
7314.68602
 31
0.0
 0
DIMENSION
  5
C0
330
1F
100
AcDbEntity
  8
0
62
10
100
AcDbDimension
  2
*D1
 10
9569.40869874
 20
5312.88703
 30
0.0
 11
9344.40869874
 21
5868.17972
 31
0.0
 70
    32
1

 71
     5
 42
1111
  3
ISO-25
100
AcDbAlignedDimension
 13
7741.21414
 23
6423.47241
 33
0.0
 14
7809.55787
 24
5312.88703
 34
0.0
 50
90.0
100
AcDbRotatedDimension
1001
ACAD
1000
DSTYLE
1002
{
1070
   271
1070
     0
1070
   173
1070
     1
1070
   343
1005
CD
1070
   344
1005
CD
1070
    44
1040
100.00000
1070
    46
1040
200.00000
1070
    41
1040
200.0
1070
    42
1040
0.0
1070
   147
1040
50.0
1070
   140
1040
350.0
1070
   279
1070
     0
1002
}
0
DIMENSION
  5
D1
330
1F
100
AcDbEntity
  8
0
62
10
100
AcDbDimension
  2
*D2
 10
4922.03543
 20
5979.2383598
 30
0.0
 11
3973.76629
 21
6204.2383598
 31
0.0
 70
    32
1

 71
     5
 42
1897
  3
ISO-25
100
AcDbAlignedDimension
 13
3025.49715
 23
4877.19594
 33
0.0
 14
4922.03543
 24
4749.05147
 34
0.0
 50
0.0
100
AcDbRotatedDimension
1001
ACAD
1000
DSTYLE
1002
{
1070
   271
1070
     0
1070
   173
1070
     1
1070
   343
1005
CD
1070
   344
1005
CD
1070
    44
1040
100.00000
1070
    46
1040
200.00000
1070
    41
1040
200.0
1070
    42
1040
0.0
1070
   147
1040
50.0
1070
   140
1040
350.0
1070
   279
1070
     0
1002
}
0
LINE
  5
DE
330
1F
100
AcDbEntity
  8
0
  6
Continuous
 62
  7
 48
25.0
370
   30
100
AcDbLine
 10
10533.34058
 20
10687.11809
 30
0.0
 11
10533.34058
 21
16786.79418
 31
0.0
 0
LINE
  5
DF
330
1F
100
AcDbEntity
  8
0
  6
Continuous
 62
  7
 48
25.0
370
   30
100
AcDbLine
 10
2895.93041
 20
10687.11809
 30
0.0
 11
2895.93041
 21
16786.79418
 31
0.0
 0
TEXT
5
E0
330
1F
100
AcDbEntity
8
0
62
7
100
AcDbText
10
3639.16822
20
11212.51054
30
0.0
40
500.0
50
0.0
1
1
41
0.57
100
AcDbText
0
LINE
  5
E1
330
1F
100
AcDbEntity
  8
0
  6
Continuous
 62
  7
 48
25.0
370
   30
100
AcDbLine
 10
18170.75075
 20
10687.11809
 30
0.0
 11
18170.75075
 21
16786.79418
 31
0.0
 0
LINE
  5
E2
330
1F
100
AcDbEntity
  8
0
  6
Continuous
 62
  7
 48
25.0
370
   30
100
AcDbLine
 10
25808.16092
 20
10687.11809
 30
0.0
 11
25808.16092
 21
16786.79418
 31
0.0
 0
LINE
  5
E3
330
1F
100
AcDbEntity
  8
0
  6
Continuous
 62
  7
 48
25.0
370
   30
100
AcDbLine
 10
25808.16092
 20
16786.79418
 30
0.0
 11
2895.93041
 21
16786.79418
 31
0.0
 0
LINE
  5
E4
330
1F
100
AcDbEntity
  8
0
  6
Continuous
 62
  7
 48
25.0
370
   30
100
AcDbLine
 10
2895.93041
 20
10687.11809
 30
0.0
 11
25808.16092
 21
10687.11809
 31
0.0
 0
TEXT
5
E5
330
1F
100
AcDbEntity
8
0
62
7
100
AcDbText
10
11276.57839
20
11212.51054
30
0.0
40
500.0
50
0.0
1
2
41
0.57
100
AcDbText
0
TEXT
5
E6
330
1F
100
AcDbEntity
8
0
62
7
100
AcDbText
10
18913.98856
20
11212.51054
30
0.0
40
500.0
50
0.0
1
3
41
0.57
100
AcDbText
0
TEXT
5
E7
330
1F
100
AcDbEntity
8
0
62
7
100
AcDbText
10
9646.54152
20
17574.53081
30
0.0
40
500.0
50
0.0
1
3 cases of dim text change variable
41
0.57
100
AcDbText
0
LINE
  5
E8
330
1F
100
AcDbEntity
  8
0
  6
Continuous
 62
  7
 48
25.0
370
   30
100
AcDbLine
 10
1520.56232
 20
7314.68602
 30
0.0
 11
1520.56232
 21
8314.68602
 31
0.0
 0
LINE
  5
E9
330
1F
100
AcDbEntity
  8
0
  6
Continuous
 62
  7
 48
25.0
370
   30
100
AcDbLine
 10
10876.06111
 20
7314.68602
 30
0.0
 11
10876.06111
 21
8314.68602
 31
0.0
 0
LINE
  5
EA
330
1F
100
AcDbEntity
  8
0
  6
Continuous
 62
  7
 48
25.0
370
   30
100
AcDbLine
 10
1520.56232
 20
8314.68602
 30
0.0
 11
10876.06111
 21
8314.68602
 31
0.0
 0
LINE
  5
EB
330
1F
100
AcDbEntity
  8
0
  6
Continuous
 62
  7
 48
100.0
370
   30
100
AcDbLine
 10
6198.31172
 20
8314.68602
 30
0.0
 11
6198.31172
 21
713.18740
 31
0.0
 0
LINE
  5
EC
330
1F
100
AcDbEntity
  8
0
  6
Continuous
 62
  7
 48
25.0
370
   30
100
AcDbLine
 10
1520.56232
 20
7314.68602
 30
0.0
 11
520.56232
 21
7314.68602
 31
0.0
 0
LINE
  5
ED
330
1F
100
AcDbEntity
  8
0
  6
Continuous
 62
  7
 48
25.0
370
   30
100
AcDbLine
 10
1520.56232
 20
713.18740
 30
0.0
 11
520.56232
 21
713.18740
 31
0.0
 0
LINE
  5
EE
330
1F
100
AcDbEntity
  8
0
  6
Continuous
 62
  7
 48
25.0
370
   30
100
AcDbLine
 10
520.56232
 20
7314.68602
 30
0.0
 11
520.56232
 21
713.18740
 31
0.0
 0
LINE
  5
EF
330
1F
100
AcDbEntity
  8
0
  6
Continuous
 62
  7
 48
100.0
370
   30
100
AcDbLine
 10
520.56232
 20
4013.93671
 30
0.0
 11
10876.06111
 21
4013.93671
 31
0.0
 0
TEXT
5
F0
330
1F
100
AcDbEntity
8
0
62
7
100
AcDbText
10
6927.81678
20
7640.11048
30
0.0
40
500.0
50
0.0
1
90 degrees
41
0.57
100
AcDbText
0
TEXT
5
F1
330
1F
100
AcDbEntity
8
0
62
7
100
AcDbText
10
2250.06739
20
7640.11048
30
0.0
40
500.0
50
0.0
1
0 degrees
41
0.57
100
AcDbText
0
TEXT
5
F2
330
1F
100
AcDbEntity
8
0
62
7
100
AcDbText
10
766.75828
20
5335.12936
30
0.0
40
500.0
50
0.0
1
1
41
0.57
100
AcDbText
0
TEXT
5
F3
330
1F
100
AcDbEntity
8
0
62
7
100
AcDbText
10
766.75828
20
2034.38005
30
0.0
40
500.0
50
0.0
1
-1
41
0.57
100
AcDbText
0
DIMENSION
  5
F4
330
1F
100
AcDbEntity
  8
0
62
10
100
AcDbDimension
  2
*D3
 10
4772.05779
 20
1912.78714674
 30
0.0
 11
3849.417545
 21
2137.78714674
 31
0.0
 70
    32
1

 71
     5
 42
1845
  3
ISO-25
100
AcDbAlignedDimension
 13
2926.77730
 23
2955.02882
 33
0.0
 14
4772.05779
 24
2920.85696
 34
0.0
 50
0.0
100
AcDbRotatedDimension
1001
ACAD
1000
DSTYLE
1002
{
1070
   271
1070
     0
1070
   173
1070
     1
1070
   343
1005
CD
1070
   344
1005
CD
1070
    44
1040
100.00000
1070
    46
1040
200.00000
1070
    41
1040
200.0
1070
    42
1040
0.0
1070
   147
1040
50.0
1070
   140
1040
350.0
1070
   279
1070
     0
1002
}
0
DIMENSION
  5
101
330
1F
100
AcDbEntity
  8
0
62
10
100
AcDbDimension
  2
*D4
 10
7566.55929858
 20
1912.78715
 30
0.0
 11
7341.55929858
 21
2459.53688
 31
0.0
 70
    32
1

 71
     5
 42
1093
  3
ISO-25
100
AcDbAlignedDimension
 13
9531.44130
 23
3006.28661
 33
0.0
 14
9702.30061
 24
1912.78715
 34
0.0
 50
90.0
100
AcDbRotatedDimension
1001
ACAD
1000
DSTYLE
1002
{
1070
   271
1070
     0
1070
   173
1070
     1
1070
   343
1005
CD
1070
   344
1005
CD
1070
    44
1040
100.00000
1070
    46
1040
200.00000
1070
    41
1040
200.0
1070
    42
1040
0.0
1070
   147
1040
50.0
1070
   140
1040
350.0
1070
   279
1070
     0
1002
}
0
TEXT
5
10F
330
1F
100
AcDbEntity
8
0
62
7
100
AcDbText
10
2260.99763
20
8894.89123
30
0.0
40
500.0
50
0.0
1
Angle and direction of dimension
41
0.57
100
AcDbText
0
DIMENSION
  5
110
330
1F
100
AcDbEntity
  8
0
62
10
100
AcDbDimension
  2
*D5
 10
16043.55261
 20
13429.4109633
 30
0.0
 11
12863.0879912
 21
13654.4109633
 31
0.0
 70
    160
1

 71
     5
 42
3908
  3
ISO-25
100
AcDbAlignedDimension
 13
12135.14663
 23
12336.09112
 33
0.0
 14
16043.55261
 24
12019.82119
 34
0.0
 50
0.0
100
AcDbRotatedDimension
1001
ACAD
1000
DSTYLE
1002
{
1070
   271
1070
     0
1070
   173
1070
     1
1070
   343
1005
CD
1070
   344
1005
CD
1070
    44
1040
100.00000
1070
    46
1040
200.00000
1070
    41
1040
200.0
1070
    42
1040
0.0
1070
   147
1040
50.0
1070
   140
1040
350.0
1070
   279
1070
     0
1002
}
0
DIMENSION
  5
11D
330
1F
100
AcDbEntity
  8
0
62
10
100
AcDbDimension
  2
*D6
 10
23680.96278
 20
15556.6089264
 30
0.0
 11
24673.735481
 21
16086.3209948
 31
0.0
 70
    160
1

 71
     5
 42
3908
  3
ISO-25
100
AcDbAlignedDimension
 13
19772.55680
 23
12686.17312
 33
0.0
 14
23680.96278
 24
12737.42938
 34
0.0
 50
0.0
100
AcDbRotatedDimension
1001
ACAD
1000
DSTYLE
1002
{
1070
   271
1070
     0
1070
   173
1070
     1
1070
   343
1005
CD
1070
   344
1005
CD
1070
    44
1040
100.00000
1070
    46
1040
200.00000
1070
    41
1040
200.0
1070
    42
1040
0.0
1070
   147
1040
50.0
1070
   140
1040
350.0
1070
   279
1070
     2
1002
}
0
DIMENSION
  5
12A
330
1F
100
AcDbEntity
  8
0
62
10
100
AcDbDimension
  2
*D7
 10
16043.55261
 20
15556.6089264
 30
0.0
 11
11098.1429618
 21
15781.6089264
 31
0.0
 70
    160
1

 71
     5
 42
3908
  3
ISO-25
100
AcDbAlignedDimension
 13
12135.14663
 23
14463.28908
 33
0.0
 14
16043.55261
 24
14147.01915
 34
0.0
 50
0.0
100
AcDbRotatedDimension
1001
ACAD
1000
DSTYLE
1002
{
1070
   271
1070
     0
1070
   173
1070
     1
1070
   343
1005
CD
1070
   344
1005
CD
1070
    44
1040
100.00000
1070
    46
1040
200.00000
1070
    41
1040
200.0
1070
    42
1040
0.0
1070
   147
1040
50.0
1070
   140
1040
350.0
1070
   279
1070
     0
1002
}
0
DIMENSION
  5
137
330
1F
100
AcDbEntity
  8
0
62
10
100
AcDbDimension
  2
*D8
 10
8406.14244
 20
15556.6089264
 30
0.0
 11
6451.93945
 21
15781.6089264
 31
0.0
 70
    32
1

 71
     5
 42
3908
  3
ISO-25
100
AcDbAlignedDimension
 13
4497.73646
 23
14121.39102
 33
0.0
 14
8406.14244
 24
14147.01915
 34
0.0
 50
0.0
100
AcDbRotatedDimension
1001
ACAD
1000
DSTYLE
1002
{
1070
   271
1070
     0
1070
   173
1070
     1
1070
   343
1005
CD
1070
   344
1005
CD
1070
    44
1040
100.00000
1070
    46
1040
200.00000
1070
    41
1040
200.0
1070
    42
1040
0.0
1070
   147
1040
50.0
1070
   140
1040
350.0
1070
   279
1070
     0
1002
}
0
DIMENSION
  5
144
330
1F
100
AcDbEntity
  8
0
62
10
100
AcDbDimension
  2
*D9
 10
5114.74824865
 20
13399.3346979
 30
0.0
 11
5714.09035392
 21
13624.3346979
 31
0.0
 70
    32
1

 71
     5
 42
617
  3
ISO-25
100
AcDbAlignedDimension
 13
4497.73646
 23
11964.11679
 33
0.0
 14
5114.74825
 24
12066.63233
 34
0.0
 50
0.0
100
AcDbRotatedDimension
1001
ACAD
1000
DSTYLE
1002
{
1070
   271
1070
     0
1070
   173
1070
     1
1070
   343
1005
CD
1070
   344
1005
CD
1070
    44
1040
100.00000
1070
    46
1040
200.00000
1070
    41
1040
200.0
1070
    42
1040
0.0
1070
   147
1040
50.0
1070
   140
1040
350.0
1070
   279
1070
     0
1002
}
0
ENDSEC
  0
SECTION
  2
OBJECTS
  0
DICTIONARY
  5
C
330
0
100
AcDbDictionary
281
     1
  3
ACAD_GROUP
350
D
  3
ACAD_PLOTSTYLENAME
350
E
  3
ACAD_MLINESTYLE
350
17
  3
ACAD_PLOTSETTINGS
350
19
  3
ACAD_LAYOUT
350
1A
  0
DICTIONARY
  5
D
102
{ACAD_REACTORS
330
C
102
}
330
C
100
AcDbDictionary
281
     1
  0
ACDBDICTIONARYWDFLT
  5
E
102
{ACAD_REACTORS
330
C
102
}
330
C
100
AcDbDictionary
281
     1
  3
Normal
350
F
100
AcDbDictionaryWithDefault
340
F
  0
DICTIONARY
  5
17
102
{ACAD_REACTORS
330
C
102
}
330
C
100
AcDbDictionary
281
     1
  3
Standard
350
18
  0
DICTIONARY
  5
19
102
{ACAD_REACTORS
330
C
102
}
330
C
100
AcDbDictionary
281
     1
  0
DICTIONARY
  5
1A
102
{ACAD_REACTORS
330
C
102
}
330
C
100
AcDbDictionary
281
     1
  3
Layout1
350
1E
  3
Model
350
22
  3
Layout2
350
26
  0
ACDBPLACEHOLDER
  5
F
102
{ACAD_REACTORS
330
E
102
}
330
E
  0
MLINESTYLE
  5
18
102
{ACAD_REACTORS
330
17
102
}
330
17
100
AcDbMlineStyle
  2
STANDARD
 70
     0
  3

 62
   256
 51
90.0
 52
90.0
 71
     2
 49
0.5
 62
   256
  6
BYLAYER
 49
-0.5
 62
   256
  6
BYLAYER
  0
LAYOUT
  5
1E
102
{ACAD_REACTORS
330
1A
102
}
330
1A
100
AcDbPlotSettings
  1

  2
Microsoft XPS Document Writer
  4

  6

 40
0.0
 41
0.0
 42
0.0
 43
0.0
 44
0.0
 45
0.0
 46
0.0
 47
0.0
 48
0.0
 49
0.0
140
0.0
141
0.0
142
1.0
143
1.0
 70
   688
 72
     0
 73
     0
 74
     5
  7

 75
    16
147
1.0
148
0.0
149
0.0
100
AcDbLayout
  1
Layout1
 70
     1
 71
     1
 10
0.0
 20
0.0
 11
420.0
 21
297.0
 12
0.0
 22
0.0
 32
0.0
 14
1.000000000000000E+20
 24
1.000000000000000E+20
 34
1.000000000000000E+20
 15
-1.000000000000000E+20
 25
-1.000000000000000E+20
 35
-1.000000000000000E+20
146
0.0
 13
0.0
 23
0.0
 33
0.0
 16
1.0
 26
0.0
 36
0.0
 17
0.0
 27
1.0
 37
0.0
 76
     0
330
1B
  0
LAYOUT
  5
22
102
{ACAD_REACTORS
330
1A
102
}
330
1A
100
AcDbPlotSettings
  1

  2
Microsoft XPS Document Writer
  4

  6

 40
0.0
 41
0.0
 42
0.0
 43
0.0
 44
0.0
 45
0.0
 46
0.0
 47
0.0
 48
0.0
 49
0.0
140
0.0
141
0.0
142
1.0
143
1.0
 70
  1712
 72
     0
 73
     0
 74
     0
  7

 75
     0
147
1.0
148
0.0
149
0.0
100
AcDbLayout
  1
Model
 70
     1
 71
     0
 10
0.0
 20
0.0
 11
12.0
 21
9.0
 12
0.0
 22
0.0
 32
0.0
 14
0.0
 24
0.0
 34
0.0
 15
0.0
 25
0.0
 35
0.0
146
0.0
 13
0.0
 23
0.0
 33
0.0
 16
1.0
 26
0.0
 36
0.0
 17
0.0
 27
1.0
 37
0.0
 76
     0
330
1F
  0
LAYOUT
  5
26
102
{ACAD_REACTORS
330
1A
102
}
330
1A
100
AcDbPlotSettings
  1

  2
Microsoft XPS Document Writer
  4

  6

 40
0.0
 41
0.0
 42
0.0
 43
0.0
 44
0.0
 45
0.0
 46
0.0
 47
0.0
 48
0.0
 49
0.0
140
0.0
141
0.0
142
1.0
143
1.0
 70
   688
 72
     0
 73
     0
 74
     5
  7

 75
    16
147
1.0
148
0.0
149
0.0
100
AcDbLayout
  1
Layout2
 70
     1
 71
     2
 10
0.0
 20
0.0
 11
12.0
 21
9.0
 12
0.0
 22
0.0
 32
0.0
 14
0.0
 24
0.0
 34
0.0
 15
0.0
 25
0.0
 35
0.0
146
0.0
 13
0.0
 23
0.0
 33
0.0
 16
1.0
 26
0.0
 36
0.0
 17
0.0
 27
1.0
 37
0.0
 76
     0
330
23
  0
ENDSEC
  0
EOF

